<?xml version="1.0" encoding="UTF-8"?>
<svg width="714px" height="1222px" viewBox="0 0 714 1222" version="1.1" xmlns="http://www.w3.org/2000/svg" xmlns:xlink="http://www.w3.org/1999/xlink">
    <title>Artboard</title>
    <g id="Artboard" stroke="none" stroke-width="1" fill="none" fill-rule="evenodd">
        <g id="bg" transform="translate(0.000000, -1.000000)" fill="#D8D8D8" stroke="#979797">
            <rect id="Rectangle" x="0.5" y="0.5" width="714" height="1223"></rect>
        </g>
        <g id="hughbang" transform="translate(-1.000000, 1126.000000)" fill="#B1C8D1" stroke="#979797">
            <rect id="Rectangle" x="0.5" y="0.5" width="78" height="95"></rect>
        </g>
        <g id="c3" transform="translate(78.000000, 1126.000000)" fill="#B1C8D1" stroke="#979797">
            <rect id="Rectangle-Copy" x="0.5" y="0.5" width="92" height="95"></rect>
        </g>
        <g id="joobang" transform="translate(-1.000000, 862.000000)" fill="#B1C8D1" stroke="#979797">
            <rect id="Rectangle-Copy-4" x="0.5" y="0.5" width="357" height="263"></rect>
        </g>
        <g id="h2" transform="translate(78.000000, 706.000000)" fill="#BEC7B3" stroke="#979797">
            <rect id="Rectangle-Copy-4" x="0.5" y="0.5" width="72" height="155"></rect>
        </g>
        <g id="h3" transform="translate(78.000000, 595.000000)" fill="#BEC7B3" stroke="#979797">
            <rect id="Rectangle-Copy-4" x="0.5" y="0.5" width="72" height="110"></rect>
        </g>
        <g id="m3" transform="translate(491.000000, 584.000000)" fill="#D1B7B7" stroke="#979797">
            <rect id="Rectangle-Copy-4" x="0.5" y="0.5" width="90" height="121"></rect>
        </g>
        <g id="m1" transform="translate(331.000000, 469.000000)" fill="#D1B7B7" stroke="#979797">
            <rect id="Rectangle-Copy-4" x="0.5" y="0.5" width="120" height="110"></rect>
        </g>
        <g id="golbang" transform="translate(331.000000, 400.000000)" fill="#BEC7B3" stroke="#979797">
            <rect id="Rectangle-Copy-4" x="0.5" y="0.5" width="72" height="68"></rect>
        </g>
        <g id="anbang" transform="translate(318.000000, -1.000000)" fill="#BEC7B3" stroke="#979797">
            <rect id="Rectangle-Copy-4" x="0.5" y="0.5" width="96" height="100"></rect>
        </g>
        <rect id="Rectangle" stroke="#979797" fill="#D8D8D8" x="0.336206897" y="469.610653" width="95.1637931" height="46.5059446"></rect>
        <rect id="Rectangle-Copy-16" stroke="#979797" fill="#D8D8D8" x="0.336206897" y="346.654091" width="95.1637931" height="46.5059446"></rect>
        <line x1="-0.581896552" y1="493.562243" x2="95.5818966" y2="493.562243" id="Line" stroke="#979797" stroke-linecap="square"></line>
        <line x1="-0.581896552" y1="370.60568" x2="95.5818966" y2="370.60568" id="Line-Copy" stroke="#979797" stroke-linecap="square"></line>
        <line x1="47.9181034" y1="469.80927" x2="47.9181034" y2="517.315215" id="Line-2" stroke="#979797" stroke-linecap="square"></line>
        <line x1="47.9181034" y1="346.852708" x2="47.9181034" y2="394.358652" id="Line-2-Copy" stroke="#979797" stroke-linecap="square"></line>
        <rect id="Rectangle-Copy-17" stroke="#979797" fill="#D8D8D8" x="0.336206897" y="223.697529" width="95.1637931" height="46.5059446"></rect>
        <g id="Group-2" transform="translate(128.000000, 98.843732)" stroke="#979797">
            <rect id="Rectangle-Copy-20" fill="#D8D8D8" x="1.5" y="0.656267553" width="144" height="46"></rect>
            <line x1="0.418103448" y1="24.6562676" x2="145.5" y2="24.6562676" id="Line-Copy-5" stroke-linecap="square"></line>
            <line x1="48.5" y1="0.856267553" x2="48.5" y2="48.4562676" id="Line-2-Copy-5" stroke-linecap="square"></line>
            <line x1="97.5" y1="0.856267553" x2="97.5" y2="48.4562676" id="Line-2-Copy-6" stroke-linecap="square"></line>
        </g>
        <g id="Group-2-Copy-5" transform="translate(471.000000, 99.000000)" stroke="#979797">
            <rect id="Rectangle-Copy-20" fill="#D8D8D8" x="1.5" y="0.5" width="200" height="46"></rect>
            <line x1="0.418103448" y1="24.5" x2="202.5" y2="24.5" id="Line-Copy-5" stroke-linecap="square"></line>
            <line x1="48.5" y1="0.7" x2="48.5" y2="48.3" id="Line-2-Copy-5" stroke-linecap="square"></line>
            <line x1="97.5" y1="0.7" x2="97.5" y2="48.3" id="Line-2-Copy-6" stroke-linecap="square"></line>
            <line x1="146.5" y1="0.7" x2="146.5" y2="48.3" id="Line-2-Copy-7" stroke-linecap="square"></line>
        </g>
        <g id="Group-2-Copy-6" transform="translate(471.000000, 200.000000)" stroke="#979797">
            <rect id="Rectangle-Copy-20" fill="#D8D8D8" x="1.5" y="0.5" width="200" height="46"></rect>
            <line x1="0.418103448" y1="24.5" x2="202.5" y2="24.5" id="Line-Copy-5" stroke-linecap="square"></line>
            <line x1="48.5" y1="0.7" x2="48.5" y2="48.3" id="Line-2-Copy-5" stroke-linecap="square"></line>
            <line x1="97.5" y1="0.7" x2="97.5" y2="48.3" id="Line-2-Copy-6" stroke-linecap="square"></line>
            <line x1="146.5" y1="0.7" x2="146.5" y2="48.3" id="Line-2-Copy-7" stroke-linecap="square"></line>
        </g>
        <g id="Group-2-Copy-7" transform="translate(471.000000, 301.000000)" stroke="#979797">
            <rect id="Rectangle-Copy-20" fill="#D8D8D8" x="1.5" y="0.5" width="200" height="46"></rect>
            <line x1="0.418103448" y1="24.5" x2="202.5" y2="24.5" id="Line-Copy-5" stroke-linecap="square"></line>
            <line x1="48.5" y1="0.7" x2="48.5" y2="48.3" id="Line-2-Copy-5" stroke-linecap="square"></line>
            <line x1="97.5" y1="0.7" x2="97.5" y2="48.3" id="Line-2-Copy-6" stroke-linecap="square"></line>
            <line x1="146.5" y1="0.7" x2="146.5" y2="48.3" id="Line-2-Copy-7" stroke-linecap="square"></line>
        </g>
        <g id="Group-2-Copy-8" transform="translate(471.000000, 402.000000)" stroke="#979797">
            <rect id="Rectangle-Copy-20" fill="#D8D8D8" x="1.5" y="0.5" width="200" height="46"></rect>
            <line x1="0.418103448" y1="24.5" x2="202.5" y2="24.5" id="Line-Copy-5" stroke-linecap="square"></line>
            <line x1="48.5" y1="0.7" x2="48.5" y2="48.3" id="Line-2-Copy-5" stroke-linecap="square"></line>
            <line x1="97.5" y1="0.7" x2="97.5" y2="48.3" id="Line-2-Copy-6" stroke-linecap="square"></line>
            <line x1="146.5" y1="0.7" x2="146.5" y2="48.3" id="Line-2-Copy-7" stroke-linecap="square"></line>
        </g>
        <g id="Group-2-Copy-4" transform="translate(129.000000, -1.000000)" stroke="#979797">
            <rect id="Rectangle-Copy-20" fill="#D8D8D8" x="0.5" y="0.5" width="144" height="23"></rect>
            <line x1="47.5" y1="0.357142857" x2="47.5" y2="24.6428571" id="Line-2-Copy-5" stroke-linecap="square"></line>
            <line x1="96.5" y1="0.357142857" x2="96.5" y2="24.6428571" id="Line-2-Copy-6" stroke-linecap="square"></line>
        </g>
        <g id="Group-2-Copy" transform="translate(128.000000, 224.594762)" stroke="#979797">
            <rect id="Rectangle-Copy-20" fill="#D8D8D8" x="1.5" y="0.905237783" width="144" height="46"></rect>
            <line x1="0.418103448" y1="24.9052378" x2="145.5" y2="24.9052378" id="Line-Copy-5" stroke-linecap="square"></line>
            <line x1="48.5" y1="1.10523778" x2="48.5" y2="48.7052378" id="Line-2-Copy-5" stroke-linecap="square"></line>
            <line x1="97.5" y1="1.10523778" x2="97.5" y2="48.7052378" id="Line-2-Copy-6" stroke-linecap="square"></line>
        </g>
        <g id="Group-2-Copy-2" transform="translate(128.000000, 350.345792)" stroke="#979797">
            <rect id="Rectangle-Copy-20" fill="#D8D8D8" x="1.5" y="0.154208013" width="144" height="46"></rect>
            <line x1="0.418103448" y1="24.154208" x2="145.5" y2="24.154208" id="Line-Copy-5" stroke-linecap="square"></line>
            <line x1="48.5" y1="0.354208013" x2="48.5" y2="47.954208" id="Line-2-Copy-5" stroke-linecap="square"></line>
            <line x1="97.5" y1="0.354208013" x2="97.5" y2="47.954208" id="Line-2-Copy-6" stroke-linecap="square"></line>
        </g>
        <g id="Group-2-Copy-3" transform="translate(128.000000, 468.096822)" stroke="#979797">
            <rect id="Rectangle-Copy-20" fill="#D8D8D8" x="1.5" y="1.40317824" width="144" height="46"></rect>
            <line x1="0.418103448" y1="24.4031782" x2="145.5" y2="24.4031782" id="Line-Copy-5" stroke-linecap="square"></line>
            <line x1="48.5" y1="0.603178244" x2="48.5" y2="48.2031782" id="Line-2-Copy-5" stroke-linecap="square"></line>
            <line x1="97.5" y1="0.603178244" x2="97.5" y2="48.2031782" id="Line-2-Copy-6" stroke-linecap="square"></line>
        </g>
        <line x1="-0.581896552" y1="247.649118" x2="95.5818966" y2="247.649118" id="Line-Copy-2" stroke="#979797" stroke-linecap="square"></line>
        <line x1="47.9181034" y1="223.896145" x2="47.9181034" y2="271.40209" id="Line-2-Copy-2" stroke="#979797" stroke-linecap="square"></line>
        <g id="Group-3" transform="translate(-1.000000, 100.240966)" stroke="#979797">
            <rect id="Rectangle-Copy-18" fill="#D8D8D8" x="1.3362069" y="0.5" width="95.1637931" height="46.5059446"></rect>
            <line x1="0.418103448" y1="24.4515891" x2="96.5818966" y2="24.4515891" id="Line-Copy-3" stroke-linecap="square"></line>
            <line x1="48.9181034" y1="0.698616832" x2="48.9181034" y2="48.2045614" id="Line-2-Copy-3" stroke-linecap="square"></line>
        </g>
        <rect id="Rectangle-Copy-19" stroke="#979797" fill="#D8D8D8" x="0.336206897" y="-0.5" width="95.1637931" height="24.150206"></rect>
        <line x1="-0.581896552" y1="23.4515891" x2="95.5818966" y2="23.4515891" id="Line-Copy-4" stroke="#979797" stroke-linecap="square"></line>
        <line x1="47.9181034" y1="-0.301383168" x2="47.5" y2="24.8488228" id="Line-2-Copy-4" stroke="#979797" stroke-linecap="square"></line>
        <g id="m2" transform="translate(582.000000, 584.000000)" fill="#D1B7B7" stroke="#979797">
            <rect id="Rectangle-Copy-4" x="0.5" y="0.5" width="131" height="121"></rect>
        </g>
        <g id="h1" transform="translate(151.000000, 595.000000)" fill="#BEC7B3" stroke="#979797">
            <rect id="Rectangle-Copy-4" x="0.5" y="0.5" width="145" height="110"></rect>
        </g>
        <g id="prroom" transform="translate(151.000000, 706.000000)" fill="#B1C8D1" stroke="#979797">
            <rect id="Rectangle-Copy-4" x="0.5" y="0.5" width="204" height="155"></rect>
        </g>
        <g id="c2" transform="translate(171.000000, 1126.000000)" fill="#B1C8D1" stroke="#979797">
            <rect id="Rectangle-Copy-2" x="0.5" y="0.5" width="92" height="95"></rect>
        </g>
        <g id="c1" transform="translate(264.000000, 1126.000000)" fill="#B1C8D1" stroke="#979797">
            <rect id="Rectangle-Copy-3" x="0.5" y="0.5" width="92" height="95"></rect>
        </g>
        <rect id="Rectangle-Copy-21" stroke="#979797" fill="#B7B7B7" x="438.5" y="706.5" width="275" height="515"></rect>
    </g>
</svg>